<?xml version="1.0" encoding="UTF-8" standalone="no"?>
<!-- Created with Inkscape (http://www.inkscape.org/) -->

<svg
   xmlns:dc="http://purl.org/dc/elements/1.1/"
   xmlns:cc="http://creativecommons.org/ns#"
   xmlns:rdf="http://www.w3.org/1999/02/22-rdf-syntax-ns#"
   xmlns:svg="http://www.w3.org/2000/svg"
   xmlns="http://www.w3.org/2000/svg"
   xmlns:sodipodi="http://sodipodi.sourceforge.net/DTD/sodipodi-0.dtd"
   xmlns:inkscape="http://www.inkscape.org/namespaces/inkscape"
   width="1920px"
   height="1080px"
   viewBox="0 0 1920 1080"
   version="1.1"
   id="SVGRoot"
   inkscape:version="0.92.4 (5da689c313, 2019-01-14)"
   sodipodi:docname="winner.svg">
  <defs
     id="defs10" />
  <sodipodi:namedview
     id="base"
     pagecolor="#ffffff"
     bordercolor="#666666"
     borderopacity="1.0"
     inkscape:pageopacity="0.0"
     inkscape:pageshadow="2"
     inkscape:zoom="0.49497475"
     inkscape:cx="908.99539"
     inkscape:cy="560.35469"
     inkscape:document-units="px"
     inkscape:current-layer="layer1"
     showgrid="false"
     inkscape:window-width="1366"
     inkscape:window-height="705"
     inkscape:window-x="0"
     inkscape:window-y="26"
     inkscape:window-maximized="1" />
  <metadata
     id="metadata13">
    <rdf:RDF>
      <cc:Work
         rdf:about="">
        <dc:format>image/svg+xml</dc:format>
        <dc:type
           rdf:resource="http://purl.org/dc/dcmitype/StillImage" />
        <dc:title></dc:title>
      </cc:Work>
    </rdf:RDF>
  </metadata>
  <g
     inkscape:label="Layer 1"
     inkscape:groupmode="layer"
     id="layer1">
    <path
       sodipodi:nodetypes="ccsssccscsssssssssscsc"
       inkscape:connector-curvature="0"
       id="path27"
       d="m 477.17675,405.73037 4.28571,247.14285 c 0,0 68.18505,-24.7249 201.33967,-47.50251 56.91888,-9.73661 124.06416,-17.48853 211.99898,-21.73643 240.17239,-11.6021 394.23319,39.73351 317.64989,21.00337 -21.0579,-5.15017 15.5335,-238.9039 15.5335,-238.9039 0,0 -25.4614,66.36495 -53.7351,109.1292 -16.7443,25.0524 -71.41,43.6872 -87.7573,38.9835 l -52.017,-14.96712 c 0,0 -36.654,-58.52203 -46.88216,-117.24527 -1.28271,-7.36447 -13.6461,-32.84216 -23.99742,-30.43037 -8.82786,2.05683 -15.80276,30.82565 -17.43303,38.45639 -6.23689,29.19277 -9.23372,68.69896 -43.96548,118.57115 -17.10709,24.56449 -48.44462,28.19089 -64.39963,29.14155 -16.65065,0.99213 -47.76326,7.68654 -71.65015,-8.46363 -46.77576,-31.62553 -40.999,-98.2081 -46.59089,-122.28717 -3.98084,-17.14178 -21.01846,-56.85126 -33.45986,-39.10177 -16.06485,22.91886 -18.52902,54.33317 -24.50923,82.32521 -4.35781,20.39774 -11.24983,80.84692 -36.90008,88.92253 -29.415,9.26084 -70.70754,-12.29274 -70.70754,-12.29274 0,0 -36.19677,-13.38037 -45.55192,-74.1987 -9.35515,-60.81834 -31.25096,-46.54614 -31.25096,-46.54614 z"
       style="fill:#a0892c;stroke:#d4aa00;stroke-width:0.96400666px;stroke-linecap:butt;stroke-linejoin:miter;stroke-opacity:1" />
    <path
       style="fill:#ffd42a;stroke:#d4aa00;stroke-width:1.05294549px;stroke-linecap:butt;stroke-linejoin:miter;stroke-opacity:1"
       d="m 477.17675,405.73037 6.33592,302.83159 c 0,0 52.09442,54.56105 142.1776,82.9273 60.7794,19.1388 167.80534,27.42268 279.1618,22.77805 111.11733,-4.63465 126.66423,-13.52702 162.55613,-23.29208 138.2359,-37.60968 150.5164,-75.54518 160.5763,-148.12202 12.6719,-91.42085 0,-277.11946 0,-277.11946 0,0 -12.6719,157.12959 -69.6952,191.41242 -30.7977,18.51574 -58.1429,55.95975 -90.604,34.87584 -27.6423,-17.95399 -51.0997,-92.59306 -56.9276,-132.01075 -5.4756,-37.03479 1.4286,17.14285 -8.9622,-51.81929 -2.41438,-16.02421 -44.64833,-14.78861 -48.24645,4.6803 -6.33591,34.28282 -7.32815,139.99129 -42.61213,198.55912 -17.37909,28.84752 -49.21491,33.10621 -65.42358,34.22263 -16.91543,1.16511 -48.52271,9.02676 -72.78939,-9.93933 -47.51948,-37.13973 -20.00607,-158.56394 -35.8459,-212.84507 -5.71429,-19.58217 -34.12732,-32.46867 -47.53013,-12.27186 -30.10746,45.36916 -16.77118,99.39505 -22.84651,132.26776 -4.42707,23.95424 -11.42868,94.94327 -37.4868,104.42692 -29.88265,10.87555 -71.8318,-14.43608 -71.8318,-14.43608 0,0 -36.77229,-15.71334 -46.27619,-87.13588 -9.5039,-71.42254 -33.72987,-139.99011 -33.72987,-139.99011 z"
       id="path25"
       inkscape:connector-curvature="0"
       sodipodi:nodetypes="ccssssccssssssssssscsc" />
    <flowRoot
       xml:space="preserve"
       id="flowRoot29"
       style="font-style:normal;font-variant:normal;font-weight:normal;font-stretch:normal;font-size:93.33333588px;line-height:1.25;font-family:Scriptina;-inkscape-font-specification:'Scriptina, Normal';font-variant-ligatures:normal;font-variant-caps:normal;font-variant-numeric:normal;font-feature-settings:normal;text-align:center;letter-spacing:0px;word-spacing:0px;writing-mode:lr-tb;text-anchor:middle;fill:#000000;fill-opacity:1;stroke:none"
       transform="translate(-68.690373,12.121831)"><flowRegion
         id="flowRegion31"
         style="font-style:normal;font-variant:normal;font-weight:normal;font-stretch:normal;font-size:93.33333588px;font-family:Scriptina;-inkscape-font-specification:'Scriptina, Normal';font-variant-ligatures:normal;font-variant-caps:normal;font-variant-numeric:normal;font-feature-settings:normal;text-align:center;writing-mode:lr-tb;text-anchor:middle"><rect
           id="rect33"
           width="505.07626"
           height="141.42136"
           x="684.88342"
           y="669.87805"
           style="font-style:normal;font-variant:normal;font-weight:normal;font-stretch:normal;font-size:93.33333588px;font-family:Scriptina;-inkscape-font-specification:'Scriptina, Normal';font-variant-ligatures:normal;font-variant-caps:normal;font-variant-numeric:normal;font-feature-settings:normal;text-align:center;writing-mode:lr-tb;text-anchor:middle" /></flowRegion><flowPara
         id="flowPara37">W i n n e r</flowPara></flowRoot>  </g>
</svg>
